<svg xmlns="http://www.w3.org/2000/svg" width="427.955" height="215.042" viewBox="0 0 427.955 215.042">
  <g id="Component_2_1" data-name="Component 2 – 1" transform="translate(1 1)">
    <path id="Path_16050" data-name="Path 16050" d="M306.126,223.467a204.739,204.739,0,0,1-31.441-109.348" transform="translate(-267.189 -108.78)" fill="none" stroke="#28b9f0" stroke-miterlimit="10" stroke-width="6"/>
    <path id="Path_16051" data-name="Path 16051" d="M381.289,246.369a206.507,206.507,0,0,1-91.271-78.924" transform="translate(-251.081 -52.757)" fill="none" stroke="#23a5e9" stroke-miterlimit="10" stroke-width="6"/>
    <path id="Path_16052" data-name="Path 16052" d="M501.635,205.69a206.282,206.282,0,0,1-167.107.5" transform="translate(-204.32 -12.578)" fill="none" stroke="#42a4f5" stroke-miterlimit="10" stroke-width="6"/>
    <path id="Path_16053" data-name="Path 16053" d="M504.548,168.681a206.524,206.524,0,0,1-88.527,75.889" transform="translate(-118.707 -51.458)" fill="none" stroke="#1468d5" stroke-miterlimit="10" stroke-width="6"/>
    <path id="Path_16054" data-name="Path 16054" d="M492.252,114.119A204.748,204.748,0,0,1,459.193,226" transform="translate(-73.352 -108.78)" fill="none" stroke="#1260d3" stroke-miterlimit="10" stroke-width="6"/>
    <path id="Path_16055" data-name="Path 16055" d="M487.244,119.225a6.856,6.856,0,1,1-6.856-6.856A6.857,6.857,0,0,1,487.244,119.225Z" transform="translate(-61.289 -110.618)" fill="#fff" stroke="#25c5d9" stroke-miterlimit="10" stroke-width="2"/>
    <path id="Path_16056" data-name="Path 16056" d="M287.466,119.247a7.73,7.73,0,1,1-7.732-7.732A7.731,7.731,0,0,1,287.466,119.247Z" transform="translate(-272.005 -111.515)" fill="#fff" stroke="#25c5d9" stroke-width="2"/>
    <path id="Path_16057" data-name="Path 16057" d="M470.307,172.454a7.333,7.333,0,1,1-7.333-7.335A7.333,7.333,0,0,1,470.307,172.454Z" transform="translate(-77.083 -55.201)" fill="#fff" stroke="#25c5d9" stroke-miterlimit="10" stroke-width="2"/>
    <path id="Path_16058" data-name="Path 16058" d="M303.063,173.776a7.579,7.579,0,1,1-7.58-7.577A7.58,7.58,0,0,1,303.063,173.776Z" transform="translate(-254.301 -55.066)" fill="#fff" stroke="#25c5d9" stroke-miterlimit="10" stroke-width="1.5"/>
    <path id="Path_16059" data-name="Path 16059" d="M430.153,210.426a9.239,9.239,0,1,1-9.24-9.238A9.239,9.239,0,0,1,430.153,210.426Z" transform="translate(-123.272 -17.308)" fill="#fff" stroke="#42a4f5" stroke-miterlimit="10" stroke-width="1.26"/>
    <path id="Path_16060" data-name="Path 16060" d="M345.93,209.537a7.5,7.5,0,1,1-7.5-7.5A7.5,7.5,0,0,1,345.93,209.537Z" transform="translate(-208.109 -16.419)" fill="#fff" stroke="#25c5d9" stroke-miterlimit="10" stroke-width="1.624"/>
  </g>
</svg>
