<?xml version="1.0" encoding="UTF-8"?>
<svg xmlns="http://www.w3.org/2000/svg" width="278" height="284" viewBox="0 0 278 284" fill="none">
  <path d="M1.44725 108.375L59.4896 268.473C60.5669 271.44 62.2474 274.151 64.4251 276.436C66.6028 278.72 69.2304 280.529 72.1421 281.747C75.0538 282.965 78.1864 283.567 81.3422 283.514C84.498 283.46 87.6086 282.754 90.4776 281.438C162.306 248.471 224.959 198.401 272.954 135.61C274.872 133.102 276.25 130.224 276.999 127.157C277.749 124.09 277.855 120.9 277.31 117.79C276.765 114.68 275.581 111.717 273.833 109.088C272.084 106.459 269.81 104.22 267.153 102.514L123.934 10.5138C119.244 7.51637 113.622 6.33159 108.121 7.18131C102.62 8.03102 97.6173 10.857 94.0501 15.1299C71.4086 41.9662 43.7163 64.0941 12.5459 80.2569C7.59333 82.7927 3.73449 87.0464 1.69164 92.2219C-0.351223 97.3974 -0.438091 103.14 1.44725 108.375Z" fill="#D8DBE8"></path>
  <path d="M1.44725 102.354L59.4896 262.452C60.5669 265.418 62.2474 268.13 64.4251 270.414C66.6028 272.699 69.2304 274.507 72.1421 275.726C75.0538 276.944 78.1864 277.545 81.3422 277.492C84.498 277.439 87.6086 276.732 90.4776 275.417C162.306 242.45 224.959 192.379 272.954 129.589C274.872 127.081 276.25 124.202 276.999 121.135C277.749 118.068 277.855 114.879 277.31 111.769C276.765 108.659 275.581 105.696 273.833 103.067C272.084 100.437 269.81 98.1992 267.153 96.4932L123.934 4.49252C119.244 1.49513 113.622 0.310351 108.121 1.16007C102.62 2.00978 97.6173 4.83572 94.0501 9.10861C71.4086 35.945 43.7163 58.0728 12.5459 74.2356C7.59333 76.7715 3.73449 81.0252 1.69164 86.2007C-0.351223 91.3762 -0.438091 97.1187 1.44725 102.354Z" fill="white"></path>
</svg>
