<?xml version="1.0" encoding="UTF-8"?>
<svg xmlns="http://www.w3.org/2000/svg" width="242" height="232" viewBox="0 0 242 232" fill="none">
  <path d="M25.6616 26.5499C22.1201 54.165 14.2427 81.0482 2.32026 106.208C-0.0946969 111.238 -0.593368 116.976 0.917602 122.347C2.42857 127.719 5.84557 132.356 10.5289 135.389L153.748 227.41C156.395 229.114 159.367 230.252 162.475 230.752C165.584 231.252 168.762 231.103 171.81 230.315C174.858 229.527 177.71 228.117 180.187 226.173C182.664 224.229 184.711 221.794 186.201 219.021C217.313 160.859 236.076 96.8978 241.313 31.1459C241.562 28.0083 241.16 24.8531 240.132 21.8784C239.104 18.9036 237.472 16.1735 235.338 13.8593C233.205 11.5451 230.617 9.69678 227.735 8.43036C224.854 7.16394 221.742 6.50674 218.594 6.5H48.3206C42.7516 6.51528 37.379 8.55943 33.2083 12.2499C29.0376 15.9403 26.3547 21.0242 25.6616 26.5499V26.5499Z" fill="#D8DBE8"></path>
  <path d="M25.6636 20.5287C22.122 48.1438 14.2447 75.027 2.32221 100.186C-0.0927438 105.217 -0.591415 110.955 0.919555 116.326C2.43053 121.698 5.84752 126.334 10.5308 129.368L153.75 221.389C156.397 223.093 159.369 224.231 162.477 224.73C165.586 225.23 168.764 225.082 171.812 224.294C174.86 223.506 177.712 222.096 180.189 220.152C182.666 218.208 184.713 215.773 186.203 213C217.315 154.838 236.078 90.8766 241.315 25.1247C241.564 21.9871 241.162 18.8319 240.134 15.8571C239.106 12.8824 237.474 10.1522 235.34 7.83803C233.207 5.52383 230.619 3.67554 227.737 2.40912C224.856 1.1427 221.744 0.485495 218.596 0.47876H48.3225C42.7535 0.494037 37.381 2.53819 33.2103 6.22865C29.0396 9.9191 26.3566 15.0029 25.6636 20.5287V20.5287Z" fill="white"></path>
</svg>
