<?xml version="1.0" encoding="UTF-8"?>
<svg xmlns="http://www.w3.org/2000/svg" width="278" height="284" viewBox="0 0 278 284" fill="none">
  <path d="M154.064 10.5139L10.8448 102.515C8.18797 104.221 5.91373 106.459 4.16565 109.088C2.41757 111.717 1.23364 114.681 0.688592 117.791C0.143546 120.901 0.249221 124.09 0.99897 127.157C1.74872 130.224 3.12625 133.102 5.04457 135.61C53.037 198.395 115.682 248.464 187.501 281.438C190.371 282.754 193.483 283.461 196.64 283.514C199.797 283.568 202.931 282.966 205.845 281.748C208.758 280.53 211.387 278.722 213.567 276.437C215.746 274.152 217.429 271.44 218.509 268.473L276.551 108.375C278.431 103.143 278.341 97.4048 276.298 92.2338C274.256 87.0628 270.4 82.8124 265.452 80.277C234.282 64.1142 206.59 41.9864 183.948 15.15C180.384 10.8739 175.382 8.04412 169.881 7.19068C164.38 6.33725 158.757 7.51875 154.064 10.5139V10.5139Z" fill="#D8DBE8"></path>
  <path d="M154.062 4.49286L10.8428 96.4936C8.18602 98.1995 5.91177 100.438 4.16369 103.067C2.41562 105.696 1.23168 108.66 0.686639 111.77C0.141593 114.88 0.247268 118.069 0.997017 121.136C1.74677 124.203 3.12429 127.081 5.04261 129.589C53.035 192.374 115.68 242.443 187.499 275.417C190.369 276.733 193.481 277.44 196.638 277.493C199.795 277.547 202.929 276.945 205.843 275.727C208.756 274.509 211.385 272.701 213.565 270.416C215.745 268.131 217.427 265.419 218.507 262.452L276.549 102.354C278.429 97.1216 278.339 91.3838 276.297 86.2128C274.254 81.0418 270.398 76.7914 265.45 74.256C234.28 58.0932 206.588 35.9654 183.946 9.12901C180.382 4.85292 175.38 2.02312 169.879 1.16969C164.378 0.316256 158.755 1.49775 154.062 4.49286V4.49286Z" fill="white"></path>
</svg>
