<?xml version="1.0" encoding="UTF-8"?>
<svg xmlns="http://www.w3.org/2000/svg" width="288" height="229" viewBox="0 0 288 229" fill="none">
  <path d="M143.999 13.0003C124.424 13.0086 104.907 10.8751 85.7965 6.63814C80.3999 5.45956 74.7588 6.28387 69.9251 8.95738C65.0913 11.6309 61.3949 15.9711 59.5249 21.1688L1.50266 181.247C0.427664 184.203 -0.0244497 187.35 0.17467 190.489C0.373789 193.629 1.21981 196.693 2.65971 199.49C4.09961 202.287 6.10226 204.756 8.54185 206.742C10.9814 208.728 13.8053 210.188 16.8361 211.031C100.1 233.67 187.899 233.67 271.163 211.031C274.193 210.188 277.017 208.728 279.457 206.742C281.897 204.756 283.899 202.287 285.339 199.49C286.779 196.693 287.625 193.629 287.824 190.489C288.023 187.35 287.571 184.203 286.496 181.247L228.454 21.1688C226.584 15.9753 222.891 11.6381 218.062 8.96501C213.232 6.29188 207.596 5.46493 202.202 6.63814C183.091 10.8751 163.574 13.0086 143.999 13.0003V13.0003Z" fill="#D8DBE8"></path>
  <path d="M144.003 6.97932C124.428 6.98756 104.911 4.85414 85.8004 0.617143C80.4038 -0.56144 74.7627 0.262875 69.929 2.93638C65.0952 5.60989 61.3988 9.95012 59.5288 15.1478L1.50657 175.226C0.43157 178.182 -0.0205434 181.329 0.178576 184.468C0.377695 187.608 1.22372 190.672 2.66362 193.469C4.10352 196.266 6.10617 198.735 8.54576 200.721C10.9853 202.707 13.8092 204.167 16.8401 205.01C100.104 227.649 187.902 227.649 271.167 205.01C274.197 204.167 277.021 202.707 279.461 200.721C281.9 198.735 283.903 196.266 285.343 193.469C286.783 190.672 287.629 187.608 287.828 184.468C288.027 181.329 287.575 178.182 286.5 175.226L228.458 15.1478C226.588 9.95426 222.895 5.61714 218.065 2.94401C213.236 0.270883 207.6 -0.556068 202.206 0.617143C183.095 4.85414 163.578 6.98756 144.003 6.97932V6.97932Z" fill="white"></path>
</svg>
