<?xml version="1.0" encoding="UTF-8"?>
<svg xmlns="http://www.w3.org/2000/svg" width="242" height="232" viewBox="0 0 242 232" fill="none">
  <path d="M193.675 6.5H23.4017C20.2492 6.49844 17.1305 7.14953 14.2419 8.41228C11.3534 9.67502 8.75751 11.5221 6.61774 13.8372C4.47796 16.1523 2.84062 18.8853 1.8088 21.8642C0.776976 24.843 0.373001 28.0033 0.622321 31.1459C5.85956 96.8978 24.6223 160.859 55.7344 219.021C57.2244 221.794 59.2721 224.229 61.7488 226.173C64.2255 228.117 67.0776 229.527 70.1257 230.315C73.1739 231.103 76.3521 231.252 79.4605 230.752C82.5689 230.252 85.5402 229.114 88.1876 227.41L231.407 135.389C236.09 132.356 239.507 127.719 241.018 122.347C242.529 116.976 242.03 111.238 239.615 106.208C227.693 81.0482 219.816 54.165 216.274 26.5499C215.582 21.0344 212.908 15.9588 208.75 12.2697C204.592 8.5806 199.234 6.52987 193.675 6.5V6.5Z" fill="#D8DBE8"></path>
  <path d="M193.675 0.478763H23.4017C20.2492 0.477199 17.1305 1.12829 14.2419 2.39104C11.3534 3.65378 8.75751 5.50085 6.61774 7.81595C4.47796 10.1311 2.84062 12.8641 1.8088 15.8429C0.776976 18.8218 0.373001 21.982 0.622321 25.1247C5.85956 90.8766 24.6223 154.838 55.7344 213C57.2244 215.773 59.2721 218.208 61.7488 220.152C64.2255 222.096 67.0776 223.506 70.1257 224.294C73.1739 225.082 76.3521 225.23 79.4605 224.73C82.5689 224.231 85.5402 223.093 88.1876 221.389L231.407 129.368C236.09 126.334 239.507 121.698 241.018 116.326C242.529 110.955 242.03 105.217 239.615 100.186C227.693 75.027 219.816 48.1438 216.274 20.5287C215.582 15.0132 212.908 9.93756 208.75 6.24846C204.592 2.55936 199.234 0.508634 193.675 0.478763V0.478763Z" fill="white"></path>
</svg>
